<svg width="128" height="128" viewBox="0 0 128 128" fill="none" xmlns="http://www.w3.org/2000/svg">
<path d="M86.2556 43.1556C79.9395 32.2158 67.0313 27.4589 55.4463 31.0007L60.1692 39.1811C67.2239 37.9424 74.6122 41.1282 78.401 47.6906C82.1899 54.2531 81.2542 62.2446 76.6542 67.7341L81.3771 75.9145C90.238 67.6518 92.5714 54.0952 86.2553 43.1554L86.2556 43.1556ZM44.6802 37.3438C36.113 45.6338 33.927 58.9779 40.1579 69.7701C46.3891 80.563 59.0375 85.3417 70.5011 82.0668L65.7441 73.8275C58.8433 74.8346 51.7121 71.6432 48.0127 65.2355C44.3133 58.8279 45.1151 51.0567 49.4369 45.5833L44.68 37.3439L44.6802 37.3438Z" fill="white"/>
<path d="M40.5594 31.9975L57.4395 35.4375L52.2093 52.2162" fill="white"/>
<path d="M73.9596 61.2254L68.4987 77.5639L85.6446 81.4239" fill="white"/>
<path d="M21 113L106 113" stroke="white" stroke-width="5" stroke-linecap="round"/>
<path d="M21 75.6804C21 75.6804 45.8295 90.1071 62.5 90.1804C79.1705 90.2536 106 75.6804 106 75.6804" stroke="white" stroke-width="5" stroke-linecap="round"/>
<path d="M21 90C21 90 46.8295 98.9268 63.5 99C80.1705 99.0732 106 90 106 90" stroke="white" stroke-width="5" stroke-linecap="round"/>
<path d="M21 102C21 102 45.8295 105.927 62.5 106C79.1705 106.073 106 102 106 102" stroke="white" stroke-width="5" stroke-linecap="round"/>
</svg>
